<svg version="1.2" xmlns="http://www.w3.org/2000/svg" viewBox="0 0 147 147" width="147" height="147">
	<title>circle-text-1-svg</title>
	<style>
		.s0 { fill: #0e7e75 } 
		.s1 { fill: #183029 } 
	</style>
	<path class="s0" d="m137.1 94l2.1 0.8-0.6-2.1 1.2-0.3 0.3 2.3 1.6-1.6 0.8 0.8-1.8 1.5 2.2 0.6-0.4 1.1-2.1-0.8 0.6 2.1-1.1 0.3-0.4-2.3-1.6 1.6-0.8-0.8 1.8-1.5-2.2-0.6z"/>
	<path class="s1" d="m120.2 125l1.1-1.2q0.5 0.3 0.9 0.4 0.5 0.1 1 0 0.4-0.1 0.9-0.3 0.4-0.2 0.7-0.6 0.7-0.7 0.9-1.6 0.1-0.8-0.2-1.8-0.4-0.9-1.4-1.8-0.9-0.9-1.9-1.3-0.9-0.3-1.8-0.1-0.9 0.3-1.5 0.9-0.4 0.4-0.6 0.8-0.2 0.5-0.2 0.9-0.1 0.5 0 1 0.1 0.4 0.4 0.9l-1.1 1.2q-0.5-0.7-0.7-1.4-0.3-0.8-0.2-1.5 0-0.8 0.4-1.5 0.3-0.8 0.9-1.4 1-1 2.2-1.4 1.3-0.3 2.7 0.1 1.3 0.4 2.6 1.6 1.2 1.2 1.7 2.5 0.5 1.4 0.2 2.6-0.3 1.3-1.3 2.3-0.6 0.6-1.3 1-0.7 0.4-1.4 0.5-0.8 0.1-1.5-0.1-0.8-0.2-1.5-0.7z"/>
	<path fill-rule="evenodd" class="s1" d="m109.8 130.6q-1-1.4-1.3-2.8-0.2-1.4 0.2-2.6 0.5-1.2 1.6-2.1 1.2-0.8 2.4-1 1.3-0.1 2.6 0.5 1.3 0.6 2.3 2 1.1 1.4 1.3 2.8 0.3 1.4-0.2 2.6-0.5 1.2-1.6 2.1-1.1 0.8-2.4 0.9-1.3 0.2-2.6-0.4-1.2-0.6-2.3-2zm1.3-1q0.8 1 1.7 1.5 0.9 0.5 1.8 0.4 0.9-0.1 1.6-0.6 0.8-0.6 1.1-1.4 0.3-0.9 0.1-1.8-0.3-1-1.1-2.1-0.8-1.1-1.7-1.5-0.9-0.5-1.7-0.4-0.9 0.1-1.7 0.6-0.7 0.6-1 1.4-0.3 0.9-0.1 1.8 0.2 1 1 2.1z"/>
	<path class="s1" d="m103.5 140.1l-5.2-9.5 1.3-0.8 8.7 4.4h0.1l-3.8-7.1 1.4-0.7 5.2 9.5-1.3 0.8-8.7-4.4h-0.1l3.8 7.1z"/>
	<path class="s1" d="m101.5 139.3l0.5 1.4-8 2.9-0.5-1.3 3.2-1.2-3.2-8.9 1.5-0.6 3.3 8.9z"/>
	<path fill-rule="evenodd" class="s1" d="m88.6 133.7l1.7-0.4-1.7 11.5-1.8 0.4-6.1-9.9 1.7-0.4 1.6 2.6-0.7 0.2 0.3 1.3 1.1-0.2 2.6 4.2 0.7-4.9 1.1-0.2-0.2-1.4-0.7 0.2zm-4.6 3.9l0.7 1.2 3.3-0.6 0.2-1.5z"/>
	<path class="s1" d="m71.6 143l1.7-0.1q0.1 0.5 0.4 0.9 0.3 0.4 0.6 0.7 0.4 0.2 0.9 0.4 0.5 0.1 1 0.1 0.9-0.1 1.7-0.6 0.7-0.5 1.1-1.4 0.3-1 0.3-2.3-0.1-1.3-0.6-2.2-0.4-0.9-1.2-1.3-0.8-0.5-1.7-0.4-0.5 0-1 0.2-0.4 0.1-0.8 0.4-0.4 0.3-0.6 0.7-0.2 0.4-0.3 1l-1.7 0.1q0.1-0.9 0.5-1.6 0.3-0.6 0.9-1.2 0.5-0.5 1.3-0.8 0.7-0.3 1.6-0.3 1.4-0.1 2.6 0.5 1.1 0.6 1.8 1.9 0.7 1.2 0.8 2.9 0.1 1.8-0.5 3-0.5 1.3-1.6 2.1-1.1 0.7-2.5 0.8-0.9 0-1.6-0.2-0.8-0.2-1.4-0.7-0.7-0.4-1.1-1.1-0.4-0.6-0.6-1.5z"/>
	<path class="s1" d="m69.7 144.9l-0.2 1.4-8.4-0.8 0.2-1.4 3.4 0.3 0.9-9.4 1.6 0.2-0.9 9.4z"/>
	<path class="s1" d="m48.5 142.1l-1.6-0.5 2.1-6.9q0.4-1 1.1-1.7 0.8-0.7 1.9-0.9 1.1-0.2 2.3 0.2 1.3 0.4 2.1 1.1 0.7 0.8 1 1.8 0.2 1-0.1 2.1l-2.1 6.9-1.6-0.5 2.1-6.8q0.2-0.7 0.1-1.3-0.2-0.7-0.6-1.2-0.5-0.4-1.3-0.7-0.8-0.2-1.5-0.1-0.7 0.1-1.1 0.6-0.5 0.5-0.7 1.2z"/>
	<path class="s1" d="m40.7 135.5q-0.2 0.7 0.2 1.4 0.3 0.6 1.2 1 0.6 0.3 1.1 0.3 0.5 0 1-0.2 0.3-0.2 0.5-0.6 0.2-0.4 0.2-0.7-0.1-0.3-0.3-0.6-0.2-0.3-0.4-0.6-0.3-0.3-0.5-0.5l-0.9-0.7q-0.4-0.3-0.8-0.7-0.4-0.5-0.7-1-0.2-0.5-0.3-1.1 0-0.6 0.3-1.3 0.4-0.8 1.2-1.3 0.7-0.4 1.7-0.4 1 0 2.1 0.6 1.1 0.5 1.8 1.2 0.6 0.8 0.8 1.6 0.1 0.9-0.3 1.8l-1.4-0.7q0.2-0.6 0-1.1-0.1-0.5-0.5-0.9-0.4-0.4-1-0.6-0.6-0.3-1.2-0.4-0.6 0-1 0.2-0.5 0.2-0.7 0.7-0.2 0.5-0.1 0.9 0.1 0.4 0.4 0.7 0.4 0.4 0.8 0.8l1 0.9q1.1 0.9 1.5 1.8 0.4 1-0.1 2-0.4 0.9-1.2 1.3-0.8 0.4-1.7 0.4-1-0.1-2-0.5-1-0.5-1.6-1.2-0.6-0.7-0.7-1.6-0.2-0.8 0.2-1.6z"/>
	<path class="s0" d="m22.4 116.6l-1.8 1.3 2.1 0.7-0.4 1.1-2.1-0.9 0.5 2.2-1.1 0.2-0.3-2.2-1.6 1.5-0.8-0.9 1.8-1.3-2.1-0.7 0.4-1.1 2 0.9-0.5-2.2 1.2-0.2 0.3 2.2 1.6-1.5z"/>
	<path class="s1" d="m4.8 85.9l0.5 1.6q-0.5 0.2-0.9 0.6-0.3 0.4-0.5 0.8-0.1 0.4-0.2 0.9 0 0.5 0.2 1 0.2 0.9 0.8 1.5 0.7 0.6 1.7 0.8 1 0.2 2.3-0.2 1.2-0.3 2-0.9 0.8-0.7 1.1-1.5 0.2-0.9 0-1.8-0.1-0.5-0.4-0.9-0.2-0.4-0.6-0.7-0.4-0.3-0.8-0.4-0.5-0.2-1-0.2l-0.4-1.6q0.8 0 1.5 0.1 0.8 0.2 1.4 0.7 0.6 0.4 1.1 1.1 0.4 0.7 0.7 1.6 0.3 1.3-0.1 2.6-0.3 1.2-1.4 2.1-1 1-2.7 1.4-1.7 0.5-3.1 0.2-1.4-0.3-2.3-1.2-0.9-0.9-1.3-2.3-0.2-0.8-0.2-1.6 0.1-0.8 0.4-1.5 0.3-0.7 0.9-1.3 0.5-0.5 1.3-0.9z"/>
	<path fill-rule="evenodd" class="s1" d="m5.6 74.2q1.7-0.1 3 0.4 1.3 0.5 2.1 1.5 0.8 1.1 0.9 2.5 0.2 1.4-0.4 2.6-0.6 1.1-1.8 1.9-1.1 0.7-2.9 0.9-1.7 0.2-3-0.3-1.3-0.6-2.1-1.6-0.8-1-0.9-2.5-0.2-1.4 0.4-2.5 0.6-1.2 1.8-2 1.1-0.7 2.9-0.9zm0.1 1.6q-1.3 0.2-2.2 0.7-0.8 0.5-1.2 1.3-0.4 0.8-0.3 1.7 0.1 0.9 0.6 1.6 0.5 0.7 1.5 1.1 0.9 0.3 2.3 0.2 1.3-0.2 2.2-0.7 0.8-0.5 1.2-1.3 0.4-0.7 0.3-1.7-0.1-0.9-0.6-1.6-0.5-0.7-1.5-1-0.9-0.4-2.3-0.3z"/>
	<path class="s1" d="m0.8 63.4l10.9 0.7-0.1 1.5-8.3 5v0.1l8 0.5-0.1 1.7-10.9-0.7 0.1-1.5 8.3-5.1v-0.1l-8-0.5z"/>
	<path class="s1" d="m2.5 62.4l-1.4-0.3 1.7-8.3 1.4 0.3-0.7 3.4 9.3 1.9-0.3 1.6-9.3-1.9z"/>
	<path fill-rule="evenodd" class="s1" d="m14.1 54.3l-0.6 1.7-8.9-7.5 0.7-1.8 11.6 0.1-0.6 1.6h-3.1l0.3-0.7-1.3-0.4-0.4 1.1-5-0.1 3.8 3.2-0.4 1.1 1.3 0.5 0.3-0.7zm-0.9-5.9l-1.5-0.1-1.1 3.1 1.1 1z"/>
	<path class="s1" d="m15.2 34.9l-0.8 1.5q-0.6-0.2-1-0.1-0.5 0-0.9 0.2-0.5 0.2-0.8 0.5-0.4 0.3-0.6 0.8-0.5 0.8-0.4 1.7 0 0.9 0.6 1.7 0.6 0.8 1.7 1.5 1.2 0.6 2.2 0.7 1 0.1 1.8-0.4 0.8-0.4 1.2-1.2 0.3-0.5 0.4-0.9 0.1-0.5 0-1 0-0.4-0.3-0.9-0.2-0.4-0.6-0.7l0.8-1.5q0.7 0.5 1.1 1.2 0.4 0.6 0.5 1.4 0.1 0.8 0 1.6-0.1 0.8-0.6 1.5-0.7 1.3-1.8 1.9-1.1 0.7-2.5 0.6-1.4-0.1-2.9-0.9-1.6-0.8-2.4-2-0.7-1.2-0.8-2.5 0-1.3 0.6-2.5 0.5-0.8 1-1.3 0.6-0.5 1.3-0.8 0.7-0.3 1.5-0.3 0.8-0.1 1.7 0.2z"/>
	<path class="s1" d="m14.4 32.4l-1.1-0.8 5.2-6.7 1.1 0.9-2.1 2.6 7.5 5.9-1 1.3-7.5-5.9z"/>
	<path class="s1" d="m27.8 16l1.3-1.1 4.7 5.4q0.8 0.9 0.9 1.9 0.2 1-0.2 2.1-0.4 1-1.4 1.8-0.9 0.9-2 1.2-1.1 0.2-2.1-0.1-1-0.3-1.7-1.1l-4.7-5.4 1.2-1.1 4.6 5.3q0.5 0.5 1.2 0.7 0.6 0.3 1.3 0.1 0.6-0.1 1.2-0.7 0.7-0.5 0.9-1.2 0.2-0.6 0.1-1.3-0.1-0.6-0.6-1.2z"/>
	<path class="s1" d="m37.3 13q-0.5-0.6-1.3-0.6-0.7 0-1.5 0.5-0.6 0.4-0.8 0.8-0.3 0.5-0.4 0.9 0 0.5 0.3 0.8 0.2 0.4 0.5 0.5 0.3 0.1 0.6 0.1 0.4 0 0.8 0 0.3-0.1 0.6-0.2l1.1-0.4q0.5-0.2 1.1-0.3 0.5-0.1 1.1-0.1 0.6 0.1 1.1 0.4 0.6 0.2 1 0.9 0.5 0.7 0.5 1.6 0 0.9-0.6 1.7-0.5 0.8-1.6 1.5-1 0.7-2 0.9-0.9 0.1-1.7-0.2-0.8-0.3-1.4-1.1l1.4-0.9q0.3 0.5 0.8 0.6 0.5 0.2 1.1 0 0.5-0.1 1-0.5 0.6-0.3 1-0.8 0.3-0.5 0.3-1 0.1-0.5-0.2-1-0.3-0.4-0.7-0.5-0.4-0.1-0.9 0-0.5 0.1-1 0.3l-1.3 0.4q-1.3 0.4-2.3 0.2-1-0.1-1.7-1.1-0.5-0.8-0.4-1.6 0-0.9 0.5-1.7 0.5-0.8 1.5-1.4 0.9-0.6 1.8-0.8 0.9-0.1 1.7 0.2 0.8 0.3 1.3 1z"/>
	<path class="s0" d="m63.4 7.1l-0.2-2.3-1.8 1.5-0.7-0.9 1.9-1.3-2.2-0.8 0.5-1 2 0.9-0.4-2.2 1.1-0.2 0.3 2.3 1.7-1.5 0.7 0.9-1.9 1.3 2.2 0.7-0.5 1.1-2-0.9 0.4 2.2z"/>
	<path class="s1" d="m98.8 8.3l-1.6-0.5q0.1-0.5 0-1-0.2-0.4-0.4-0.8-0.3-0.4-0.7-0.7-0.4-0.3-0.9-0.4-0.9-0.3-1.8-0.1-0.8 0.3-1.5 1-0.7 0.8-1.1 2-0.4 1.3-0.2 2.3 0.1 1 0.7 1.7 0.6 0.6 1.5 0.9 0.4 0.2 0.9 0.2 0.5 0 1-0.2 0.4-0.1 0.8-0.4 0.3-0.3 0.6-0.8l1.6 0.5q-0.4 0.7-0.9 1.2-0.6 0.6-1.3 0.9-0.7 0.3-1.5 0.3-0.8 0-1.7-0.2-1.4-0.5-2.2-1.4-0.9-1-1.1-2.4-0.3-1.4 0.3-3 0.5-1.7 1.5-2.7 0.9-1 2.2-1.4 1.2-0.3 2.6 0.1 0.8 0.3 1.5 0.8 0.6 0.4 1.1 1.1 0.4 0.6 0.6 1.4 0.1 0.7 0 1.6z"/>
	<path fill-rule="evenodd" class="s1" d="m108.4 15.1q-0.8 1.5-1.9 2.4-1.2 0.8-2.5 0.9-1.3 0.2-2.5-0.5-1.3-0.6-2-1.7-0.7-1.1-0.7-2.5 0-1.4 0.8-3 0.7-1.5 1.9-2.4 1.1-0.8 2.4-0.9 1.3-0.1 2.5 0.5 1.3 0.6 2 1.7 0.7 1.1 0.7 2.5 0 1.4-0.7 3zm-1.5-0.7q0.6-1.2 0.6-2.2 0-1.1-0.4-1.8-0.5-0.8-1.3-1.2-0.9-0.4-1.7-0.3-0.9 0.1-1.7 0.7-0.8 0.7-1.4 1.8-0.6 1.2-0.6 2.3 0 1 0.4 1.7 0.5 0.8 1.3 1.2 0.9 0.4 1.8 0.3 0.8-0.1 1.6-0.7 0.8-0.6 1.4-1.8z"/>
	<path class="s1" d="m119.7 16.5l-6.3 8.9-1.2-0.9 0.1-9.7-0.1-0.1-4.6 6.6-1.3-1 6.2-8.9 1.3 0.9-0.1 9.7 0.1 0.1 4.6-6.6z"/>
	<path class="s1" d="m120 18.7l1-1 6.1 5.8-0.9 1-2.5-2.3-6.5 6.9-1.2-1.2 6.5-6.9z"/>
	<path fill-rule="evenodd" class="s1" d="m120.5 32.6l-1-1.4 10.9-3.7 1.2 1.5-6.1 9.9-1.1-1.4 1.7-2.6 0.4 0.6 1.1-0.9-0.7-0.9 2.6-4.1v-0.1l-4.7 1.6-0.7-0.9-1.1 0.8 0.4 0.6zm5.5 2.3l0.8-1.2-2-2.6-1.4 0.5z"/>
	<path class="s1" d="m136.6 43.8l-0.8-1.4q0.5-0.4 0.7-0.8 0.2-0.4 0.3-0.9 0-0.5-0.1-0.9-0.1-0.5-0.3-1-0.5-0.8-1.3-1.2-0.8-0.4-1.8-0.3-1 0-2.1 0.7-1.2 0.6-1.8 1.5-0.6 0.8-0.6 1.7 0 0.8 0.4 1.7 0.3 0.4 0.6 0.7 0.4 0.4 0.8 0.6 0.4 0.2 0.9 0.2 0.5 0 1-0.1l0.8 1.4q-0.8 0.3-1.6 0.3-0.7 0-1.4-0.3-0.8-0.3-1.4-0.8-0.6-0.5-1-1.3-0.7-1.3-0.7-2.6 0.1-1.3 0.9-2.4 0.8-1.2 2.3-2 1.5-0.9 2.9-1 1.4 0 2.5 0.6 1.2 0.7 1.9 1.9 0.4 0.7 0.5 1.5 0.2 0.8 0.1 1.6-0.1 0.7-0.6 1.4-0.4 0.7-1.1 1.2z"/>
	<path class="s1" d="m139.1 44.3l1.3-0.5 3 7.9-1.3 0.5-1.2-3.2-8.9 3.4-0.6-1.6 8.9-3.3z"/>
	<path class="s1" d="m146.1 64.6l0.2 1.6-7 1.2q-1.2 0.2-2.1-0.2-1-0.4-1.6-1.3-0.7-0.8-0.9-2.1-0.2-1.3 0.1-2.4 0.3-1 1.1-1.7 0.8-0.7 1.9-0.8l7.1-1.2 0.3 1.6-7 1.2q-0.7 0.1-1.2 0.5-0.5 0.4-0.7 1.1-0.3 0.6-0.1 1.4 0.1 0.8 0.5 1.4 0.5 0.5 1.1 0.7 0.6 0.3 1.3 0.2z"/>
	<path class="s1" d="m143.7 74.4q0.7-0.1 1.1-0.8 0.4-0.6 0.4-1.5 0-0.7-0.2-1.2-0.2-0.5-0.6-0.7-0.4-0.3-0.8-0.3-0.4 0-0.7 0.2-0.3 0.2-0.5 0.5-0.2 0.3-0.3 0.7-0.1 0.3-0.2 0.6l-0.2 1.1q-0.1 0.5-0.3 1.1-0.2 0.5-0.6 1-0.3 0.5-0.9 0.8-0.5 0.3-1.2 0.3-0.9 0-1.7-0.4-0.7-0.5-1.1-1.4-0.5-0.9-0.5-2.1 0-1.3 0.3-2.2 0.4-0.9 1.1-1.4 0.7-0.5 1.7-0.6v1.6q-0.6 0.1-0.9 0.5-0.4 0.3-0.6 0.8-0.2 0.6-0.2 1.2 0.1 0.7 0.3 1.2 0.2 0.6 0.6 0.9 0.4 0.3 1 0.3 0.5 0 0.8-0.3 0.3-0.3 0.4-0.8 0.2-0.4 0.4-1l0.3-1.3q0.3-1.3 1-2.1 0.7-0.8 1.8-0.8 1 0 1.7 0.5 0.7 0.4 1.1 1.3 0.4 0.9 0.4 2 0.1 1.1-0.3 1.9-0.4 0.9-1 1.4-0.7 0.5-1.6 0.5z"/>
</svg>