<svg width="50" height="51" viewBox="0 0 50 51" fill="none" xmlns="http://www.w3.org/2000/svg">
<path d="M48.0603 31.0828L48.0493 31.0641C47.5491 30.3024 46.7854 29.7521 45.9047 29.5184C45.0239 29.2848 44.0879 29.3842 43.2759 29.7977L38.2696 32.3578C37.67 31.516 36.7879 30.9178 35.784 30.6721C34.7802 30.4265 33.7214 30.5498 32.8009 31.0195L26.4962 34.2508C26.1674 34.4202 25.8024 34.5075 25.4325 34.5052C25.0625 34.5029 24.6987 34.411 24.372 34.2375L20.0751 31.9562C18.449 31.0882 16.6141 30.6876 14.7742 30.7991C12.9342 30.9105 11.1611 31.5295 9.65167 32.5875L9.16651 30.2734C9.14535 30.1727 9.1045 30.0772 9.0463 29.9923C8.98811 29.9074 8.91371 29.8349 8.8274 29.7788C8.74108 29.7228 8.64454 29.6843 8.54333 29.6657C8.44211 29.6471 8.33822 29.6487 8.2376 29.6703L2.17901 30.9773C1.97733 31.0208 1.80105 31.1424 1.68864 31.3154C1.57623 31.4884 1.53682 31.6988 1.57901 31.9008L5.10635 48.7078C5.14232 48.884 5.23797 49.0424 5.37717 49.1563C5.51637 49.2701 5.69058 49.3325 5.87042 49.3328C5.92554 49.3325 5.9805 49.3268 6.03448 49.3156L12.0962 48.0109C12.298 47.9674 12.4745 47.8458 12.5869 47.6726C12.6993 47.4994 12.7386 47.2888 12.6962 47.0867L12.3837 45.5828L14.4548 45.1367C15.0584 45.0077 15.6798 44.9839 16.2915 45.0664L26.0321 46.1344C28.0545 46.4018 30.1048 45.9206 31.797 44.7812L47.4009 34.3125C47.9111 33.9671 48.2658 33.4357 48.389 32.8321C48.5123 32.2284 48.3943 31.6005 48.0603 31.0828ZM6.47354 47.6187L3.27042 32.3414L7.80167 31.3648L11.0048 46.643L6.47354 47.6187ZM46.5314 33.0172L30.9275 43.4859C29.5439 44.414 27.8683 44.8031 26.2173 44.5797L16.4767 43.5117C15.6928 43.406 14.8965 43.4378 14.1235 43.6055L12.0595 44.0492L10.0001 34.2508L10.5337 33.8789C11.8078 32.9823 13.3058 32.4569 14.8609 32.3612C16.4159 32.2655 17.967 32.6032 19.3415 33.3367L23.6384 35.618C24.1875 35.9098 24.7991 36.0645 25.421 36.0687C26.0428 36.0729 26.6564 35.9266 27.2095 35.6422L33.5157 32.407C34.1461 32.0849 34.8761 32.0169 35.5551 32.2172C36.2341 32.4176 36.8104 32.8708 37.1649 33.4836C37.269 33.663 37.2983 33.8761 37.2466 34.077C37.1949 34.2778 37.0662 34.4502 36.8884 34.557L28.1946 39.7133C26.6747 40.6198 24.8641 40.9066 23.1384 40.5141L15.2978 38.6391L14.9353 40.1594L22.7829 42.0344C24.9011 42.5197 27.1249 42.1697 28.9915 41.057L37.6853 35.9008C38.0414 35.687 38.3343 35.3824 38.5341 35.0183C38.7338 34.6541 38.8332 34.2433 38.822 33.8281L43.9845 31.1867C44.452 30.9493 44.9904 30.8921 45.4973 31.0259C46.0043 31.1598 46.4443 31.4753 46.7337 31.9125L46.7423 31.9258C46.8549 32.0997 46.8958 32.3105 46.8564 32.5139C46.8171 32.7174 46.7006 32.8977 46.5314 33.0172Z" fill="#029D9E"/>
<path d="M6.61995 33.2203L5.09082 33.5415L5.41168 35.0691L6.94081 34.7479L6.61995 33.2203Z" fill="#029D9E"/>
<path d="M24.5404 31.9914C24.6741 32.0888 24.8352 32.1413 25.0006 32.1413C25.1659 32.1413 25.3271 32.0888 25.4607 31.9914C33.2998 26.2734 38.1256 20.8211 39.8787 15.7351H43.8943C44.0786 16.2564 44.4412 16.6957 44.9181 16.9755C45.395 17.2552 45.9554 17.3574 46.5003 17.2639C47.0453 17.1704 47.5396 16.8872 47.896 16.4645C48.2523 16.0418 48.4478 15.5067 48.4478 14.9539C48.4478 14.401 48.2523 13.8659 47.896 13.4432C47.5396 13.0205 47.0453 12.7374 46.5003 12.6439C45.9554 12.5504 45.395 12.6525 44.9181 12.9323C44.4412 13.212 44.0786 13.6514 43.8943 14.1726H40.3131C40.4461 13.5967 40.5388 13.0122 40.5904 12.4234C40.7284 11.237 40.6256 10.0349 40.2881 8.8892C39.9506 7.74346 39.3854 6.6776 38.6263 5.75542C37.8559 4.72899 36.8569 3.8962 35.7086 3.32311C34.5602 2.75003 33.2941 2.45241 32.0107 2.45386C29.4312 2.55472 26.9612 3.52312 25.0006 5.2023C23.0399 3.52312 20.5699 2.55472 17.9904 2.45386C16.7068 2.45247 15.4405 2.7501 14.2919 3.32318C13.1433 3.89625 12.144 4.72901 11.3732 5.75542C10.6145 6.6778 10.0496 7.7437 9.71227 8.8894C9.37493 10.0351 9.27211 11.237 9.40993 12.4234C9.88103 18.4273 14.9717 25.0117 24.5404 31.9914ZM46.0943 14.1726C46.2488 14.1726 46.3999 14.2184 46.5283 14.3043C46.6568 14.3901 46.757 14.5121 46.8161 14.6549C46.8752 14.7976 46.8907 14.9547 46.8605 15.1063C46.8304 15.2578 46.756 15.397 46.6467 15.5063C46.5375 15.6156 46.3983 15.69 46.2467 15.7201C46.0952 15.7502 45.9381 15.7348 45.7953 15.6756C45.6526 15.6165 45.5306 15.5164 45.4447 15.3879C45.3589 15.2594 45.3131 15.1084 45.3131 14.9539C45.3131 14.7467 45.3954 14.5479 45.5419 14.4014C45.6884 14.2549 45.8871 14.1726 46.0943 14.1726ZM12.5349 6.79996C12.5715 6.76381 12.6042 6.72402 12.6326 6.68121C13.259 5.85325 14.0688 5.18174 14.9984 4.71938C15.928 4.25701 16.9522 4.01638 17.9904 4.01636C21.6107 4.01636 24.4201 6.77339 24.4482 6.80074C24.5208 6.87338 24.6069 6.931 24.7018 6.97032C24.7966 7.00963 24.8983 7.02987 25.0009 7.02987C25.1036 7.02987 25.2053 7.00963 25.3001 6.97032C25.395 6.931 25.4811 6.87338 25.5537 6.80074C25.5818 6.77183 28.3709 4.01636 32.0107 4.01636C33.0496 4.01244 34.0751 4.25135 35.0053 4.71402C35.9356 5.17669 36.7448 5.85033 37.3685 6.68121C37.3969 6.72402 37.4297 6.76381 37.4662 6.79996C38.0856 7.56274 38.5438 8.44323 38.8132 9.38817C39.0826 10.3331 39.1575 11.3229 39.0334 12.2976C38.9814 12.9307 38.8742 13.5581 38.7131 14.1726H32.4849L29.5849 9.09449C29.5123 8.96621 29.4048 8.86111 29.2749 8.79133C29.1451 8.72155 28.9981 8.68994 28.851 8.70015C28.704 8.71037 28.5628 8.76199 28.4438 8.84905C28.3248 8.93611 28.2329 9.05505 28.1787 9.19214L24.3154 18.8601L21.8404 10.8179C21.796 10.6737 21.7108 10.5454 21.5951 10.4485C21.4793 10.3516 21.338 10.2904 21.1882 10.2721C21.0384 10.2538 20.8865 10.2794 20.7509 10.3456C20.6153 10.4118 20.5017 10.5159 20.424 10.6453L18.3076 14.1726H13.2818V15.7351H18.7506C18.8854 15.7351 19.0179 15.7002 19.1352 15.6338C19.2525 15.5674 19.3507 15.4718 19.4201 15.3562L20.8599 12.9523L23.4701 21.4336C23.5183 21.5873 23.6129 21.7224 23.7408 21.8203C23.8688 21.9182 24.0239 21.9741 24.1849 21.9804H24.2193C24.3756 21.9805 24.5282 21.9337 24.6576 21.8461C24.787 21.7585 24.8871 21.6341 24.9451 21.489L29.031 11.2726L31.3537 15.3351C31.4212 15.4559 31.5195 15.5565 31.6387 15.6268C31.7578 15.6971 31.8935 15.7344 32.0318 15.7351H38.2037C36.7576 19.4164 33.1607 24.3539 25.0006 30.3906C13.992 22.2468 11.2888 16.1007 10.9724 12.3601C10.8389 11.3757 10.9087 10.3744 11.1775 9.41811C11.4462 8.46177 11.9082 7.5707 12.5349 6.79996Z" fill="#029D9E"/>
<path d="M7.8125 14.1726H1.5625V15.7351H7.8125V14.1726Z" fill="#029D9E"/>
</svg>
