<svg width="50" height="51" viewBox="0 0 50 51" fill="none" xmlns="http://www.w3.org/2000/svg">
<g clip-path="url(#clip0_234_347)">
<path d="M12.2276 31.8939H9.42783C8.72783 31.8939 8.1582 32.4635 8.1582 33.1636V38.1089C8.1582 38.8089 8.72774 39.3785 9.42783 39.3785H12.2275C12.9275 39.3785 13.4972 38.809 13.4972 38.1089V33.1636C13.4972 32.4635 12.9276 31.8939 12.2276 31.8939ZM12.0322 37.9135H9.62315V33.3588H12.0322V37.9135Z" fill="#029D9E"/>
<path d="M44.8315 27.0563C44.5428 26.7734 44.079 26.7775 43.7957 27.0665L38.5539 32.4124L36.7483 30.5232C36.4688 30.2308 36.005 30.2201 35.7128 30.4998C35.4203 30.7793 35.4097 31.2429 35.6893 31.5353L38.0177 33.9715C38.3038 34.2706 38.7804 34.2735 39.0702 33.9781L44.8417 28.0921C45.1248 27.8032 45.1203 27.3395 44.8315 27.0563Z" fill="#029D9E"/>
<path d="M49.2676 28.1444C49.6722 28.1444 50 27.8166 50 27.412V21.9327C50 20.8896 48.8752 20.2318 47.9656 20.7452C46.174 21.7572 44.4853 21.7917 42.9462 20.8477C41.719 20.0951 41.0319 18.9935 41.0045 18.9491C40.7548 18.5406 40.32 18.2968 39.841 18.2968C39.8407 18.2968 39.8404 18.2968 39.8402 18.2968C39.6692 18.2969 39.5039 18.3286 39.3507 18.387L34.0524 10.3706C33.8367 9.95587 33.4941 9.63302 33.0817 9.44064V5.70899H33.157C33.5616 5.70899 33.8895 5.38106 33.8895 4.97656C33.8895 4.57207 33.5616 4.24414 33.157 4.24414C32.3822 4.24414 26.1974 4.24414 25.5166 4.24414C25.112 4.24414 24.7842 4.57207 24.7842 4.97656C24.7842 5.38106 25.112 5.70899 25.5166 5.70899H25.5691V9.23995H22.4371C22.0326 9.23995 21.7047 9.56788 21.7047 9.97237C21.7047 10.3769 22.0326 10.7048 22.4371 10.7048H25.5691C25.5691 11.3826 25.5691 15.7271 25.5691 16.4031C25.5691 16.922 25.9912 17.3441 26.51 17.3441H32.1244C32.6521 17.3441 33.0816 16.9147 33.0816 16.3868C33.0816 15.8935 33.0816 12.1283 33.0816 11.5583L38.3002 19.4543C36.5565 21.5591 34.3026 22.2061 31.7161 20.7451C30.8061 20.2312 29.6817 20.8901 29.6817 21.9325V22.458C29.3903 22.458 2.77104 22.458 2.10336 22.458C1.64223 22.458 1.3431 21.9868 1.51596 21.578L8.41265 11.143C8.43003 11.1167 8.44566 11.0895 8.45943 11.0612C8.56538 10.8447 8.7896 10.7049 9.03072 10.7049H19.0187C19.4232 10.7049 19.7511 10.377 19.7511 9.97247C19.7511 9.56798 19.4232 9.24005 19.0187 9.24005H9.03091C8.2522 9.24005 7.52661 9.68204 7.16753 10.3704L0.263415 20.8165C0.246032 20.8428 0.230407 20.8701 0.216637 20.8984C-0.467153 22.2953 0.551111 23.923 2.10355 23.923H2.26273V25.4694C2.26273 26.2789 2.92143 26.9377 3.7311 26.9377H4.5269V46.0739H2.71625C2.31176 46.0739 1.98383 46.4017 1.98383 46.8063C1.98383 47.2109 2.31176 47.5388 2.71625 47.5388C4.24858 47.5388 37.1251 47.5388 38.7397 47.5388C39.1442 47.5388 39.4721 47.2109 39.4721 46.8063C39.4721 46.4017 39.1442 46.0739 38.7397 46.0739H36.6931V41.1679C37.4949 41.5959 38.345 41.9427 39.236 42.2008L39.2469 42.2039C39.7685 42.355 39.9109 42.3558 40.4154 42.2095L40.446 42.2008C45.7574 40.6621 49.3361 36.0524 49.9136 30.9118C49.9588 30.5098 49.6696 30.1473 49.2676 30.1021C48.8643 30.0562 48.5032 30.3462 48.4579 30.7481C47.946 35.3041 44.7773 39.4209 40.0386 40.7935L40.0078 40.8024C39.9476 40.8199 39.8812 40.8391 39.8416 40.8491C39.7992 40.8387 39.7259 40.8175 39.6546 40.7969L39.6436 40.7936C35.5332 39.6032 32.5625 36.3198 31.5432 32.4515C31.2824 31.4621 31.1469 30.4351 31.1469 29.3874C31.1469 27.2131 31.1469 24.4983 31.1469 22.1041C34.5748 23.9567 37.9157 22.684 39.8408 19.8457C40.1003 20.2314 40.8986 21.3102 42.1805 22.0963C43.5494 22.9362 45.7543 23.6078 48.5353 22.1041V27.412C48.5352 27.8165 48.8631 28.1444 49.2676 28.1444ZM31.6169 15.8793H27.0341C27.0341 14.3791 27.0341 7.18389 27.0341 5.70899H31.6169C31.6169 7.60733 31.6169 13.9779 31.6169 15.8793ZM3.72768 25.4694V23.923H29.6819V25.4727L3.72768 25.4694ZM24.0308 46.0739H17.1944V35.3641C17.1944 34.2585 18.0939 33.3588 19.1998 33.3588H22.0255C23.1312 33.3588 24.0308 34.2584 24.0308 35.3641V46.0739ZM32.8664 38.0691C33.5572 38.8843 34.3257 39.6055 35.2283 40.2546V46.0738H35.2282H25.4958V35.3641C25.4958 33.4506 23.939 31.894 22.0256 31.894H19.1999C17.2864 31.894 15.7297 33.4507 15.7297 35.3641V46.0738H5.99175V26.9377H29.6818V29.3874V29.3875C29.6818 30.2376 29.7623 31.0752 29.9162 31.894H28.8526C28.1224 31.894 27.5282 32.488 27.5282 33.2184V38.0543C27.5282 38.7845 28.1223 39.3787 28.8526 39.3787H31.5429C32.2681 39.3786 32.8583 38.7925 32.8664 38.0691ZM31.4023 35.9685V37.9135H28.9933V33.3588H30.2792C30.5674 34.2927 30.9594 35.1839 31.4023 35.9685Z" fill="#029D9E"/>
</g>
<defs>
<clipPath id="clip0_234_347">
<rect width="50" height="50" fill="white" transform="translate(0 0.891357)"/>
</clipPath>
</defs>
</svg>
