<svg width="50" height="51" viewBox="0 0 50 51" fill="none" xmlns="http://www.w3.org/2000/svg">
<mask id="mask0_234_358" style="mask-type:luminance" maskUnits="userSpaceOnUse" x="0" y="0" width="50" height="51">
<path d="M0 0.891361H50V50.8914H0V0.891361Z" fill="white"/>
</mask>
<g mask="url(#mask0_234_358)">
<path d="M31.9825 5.07454L25.074 3.5555C23.2786 3.16068 21.4189 3.16068 19.6236 3.5555L5.71289 6.61419C4.30137 6.92454 3.2959 8.17513 3.2959 9.62044V33.2825C3.2959 34.6038 3.62676 35.904 4.26201 37.0627C5.93672 40.1179 10.1272 45.6323 19.3576 48.1267C20.3368 48.3912 21.3429 48.5236 22.3488 48.5236C23.3547 48.5236 24.3608 48.3912 25.34 48.1267C34.5827 45.629 38.772 40.1031 40.4424 37.0505C41.0744 35.8954 41.4018 34.5991 41.4018 33.2825V9.62044C41.4018 8.17513 40.3962 6.92454 38.9847 6.61419L35.2923 5.80228" stroke="#029D9E" stroke-width="1.3" stroke-miterlimit="10" stroke-linecap="round" stroke-linejoin="round"/>
<path d="M20.1184 7.49216L8.01524 10.1534C7.28027 10.3149 6.75684 10.9661 6.75684 11.7186V32.0607C6.75684 33.142 7.02754 34.206 7.54727 35.1542C8.91797 37.6544 12.3472 42.1671 19.9007 44.2083C20.702 44.4247 21.5252 44.5331 22.3484 44.5331H22.3485C23.1718 44.5331 23.9949 44.4247 24.7963 44.2083C32.3372 42.1704 35.7676 37.6694 37.1428 35.1667C37.6658 34.2147 37.9401 33.1469 37.9401 32.0607V11.7186C37.9401 10.9661 37.4166 10.3149 36.6816 10.1534L24.5786 7.49216C23.1094 7.16912 21.5876 7.16912 20.1184 7.49216Z" stroke="#029D9E" stroke-width="1.3" stroke-miterlimit="10" stroke-linecap="round" stroke-linejoin="round"/>
<path d="M45.2781 1.79172C44.9283 2.60305 44.2045 3.7971 42.8194 4.44963C42.581 4.56194 42.581 4.90198 42.8194 5.01428C44.2045 5.66682 44.9283 6.86086 45.2781 7.67219C45.3873 7.92551 45.744 7.92551 45.8532 7.67219C46.2029 6.86086 46.9268 5.66682 48.3117 5.01428C48.5503 4.90198 48.5503 4.56194 48.3117 4.44963C46.9268 3.7971 46.2029 2.60305 45.8532 1.79172C45.744 1.5384 45.3873 1.5384 45.2781 1.79172Z" stroke="#029D9E" stroke-width="1.3" stroke-miterlimit="10" stroke-linecap="round" stroke-linejoin="round"/>
<path d="M4.14617 44.1106C3.79646 44.9219 3.07253 46.1159 1.68757 46.7685C1.44919 46.8808 1.44919 47.2208 1.68757 47.3331C3.07253 47.9857 3.79646 49.1797 4.14617 49.991C4.25535 50.2444 4.61209 50.2444 4.72126 49.991C5.07107 49.1797 5.795 47.9857 7.17986 47.3331C7.41834 47.2208 7.41834 46.8808 7.17986 46.7685C5.795 46.1159 5.07107 44.9219 4.72126 44.1106C4.61209 43.8573 4.25535 43.8573 4.14617 44.1106Z" stroke="#029D9E" stroke-width="1.3" stroke-miterlimit="10" stroke-linecap="round" stroke-linejoin="round"/>
<path d="M25.2562 28.5284L30.5642 23.2233C31.6301 22.158 31.6304 20.4303 30.5647 19.3648L30.5644 19.3645C29.4991 18.2992 27.772 18.2992 26.7066 19.3645L19.7649 26.3063L17.9909 24.5322C16.9255 23.4669 15.1983 23.4669 14.133 24.5322C13.0674 25.5979 13.0677 27.3258 14.1338 28.3909L18.3983 32.6518C19.1532 33.4059 20.3764 33.4058 21.1311 32.6516L22.8409 30.9427" stroke="#029D9E" stroke-width="1.3" stroke-miterlimit="10" stroke-linecap="round" stroke-linejoin="round"/>
</g>
</svg>
