<svg version="1.1" xmlns="http://www.w3.org/2000/svg" xmlns:xlink="http://www.w3.org/1999/xlink" x="0px" y="0px" viewBox="-496 507.1 54 54" style="enable-background-color:new -496 507.1 54 54;" xml:space="preserve"><style type="text/css">.chaty-sts3-0{fill:#ffffff;}</style><g><circle cx="-469" cy="534.1" r="27" fill="#000"></circle></g><path class="chaty-sts3-0" d="M-464.6,527.7h-15.6c-1.9,0-3.5,1.6-3.5,3.5v10.4c0,1.9,1.6,3.5,3.5,3.5h12.6l5,5c0.2,0.2,0.3,0.2,0.7,0.2c0.2,0,0.2,0,0.3,0c0.3-0.2,0.5-0.5,0.5-0.9v-18.2C-461.1,529.3-462.7,527.7-464.6,527.7z"></path><path class="chaty-sts3-0" d="M-459.4,522.5H-475c-1.9,0-3.5,1.6-3.5,3.5h13.9c2.9,0,5.2,2.3,5.2,5.2v11.6l1.9,1.9c0.2,0.2,0.3,0.2,0.7,0.2c0.2,0,0.2,0,0.3,0c0.3-0.2,0.5-0.5,0.5-0.9v-18C-455.9,524.1-457.5,522.5-459.4,522.5z"></path></svg>