<svg width="90" height="89" viewBox="0 0 90 89" fill="none" xmlns="http://www.w3.org/2000/svg">
<path d="M47.9297 88.3872H43.0469C40.893 88.3872 39.1406 86.6349 39.1406 84.481C39.1406 84.4259 52.8135 4.31436 52.8135 4.31436C52.8607 2.20107 54.5943 0.496582 56.7188 0.496582H86.0156C88.1695 0.496582 89.9219 2.24893 89.9219 4.40283C89.9219 4.54795 51.7459 84.8909 51.7459 84.8909C51.4717 85.5005 50.0594 88.3872 47.9297 88.3872ZM41.0953 84.5556C41.1346 85.5981 41.9949 86.4341 43.0469 86.4341H47.9297C48.5057 86.4341 49.4666 85.1936 49.9686 84.0808C49.9713 84.0747 49.9744 84.0675 49.9773 84.0614L87.9586 4.20361C87.8586 3.21982 87.0254 2.44971 86.0156 2.44971H56.7188C55.6418 2.44971 54.7656 3.32588 54.7656 4.40283C54.7656 4.45791 54.7611 4.51279 54.7518 4.56709L41.0953 84.5556ZM8.86719 88.3872H3.98438C1.83047 88.3872 0.078125 86.6349 0.078125 84.481C0.078125 84.4259 13.751 4.31436 13.751 4.31436C13.7982 2.20107 15.532 0.496582 17.6562 0.496582H46.9531C49.107 0.496582 50.8594 2.24893 50.8594 4.40283C50.8594 4.54795 12.6834 84.8909 12.6834 84.8909C12.4092 85.5005 10.9969 88.3872 8.86719 88.3872ZM2.03281 84.5556C2.07207 85.5981 2.93242 86.4341 3.98438 86.4341H8.86719C9.44316 86.4341 10.4041 85.1936 10.9061 84.0808C10.9088 84.0747 10.9121 84.0675 10.915 84.0614L48.8961 4.20361C48.7961 3.21982 47.9629 2.44971 46.9531 2.44971H17.6562C16.5793 2.44971 15.7031 3.32588 15.7031 4.40283C15.7031 4.45791 15.6984 4.51279 15.6893 4.56709L2.03281 84.5556Z" fill="#D11D0F"/>
</svg>
